<svg xmlns="http://www.w3.org/2000/svg" version="1.1" xmlns:xlink="http://www.w3.org/1999/xlink" xmlns:svgjs="http://svgjs.dev/svgjs" viewBox="0 0 1920 1080" style="overflow: hidden; height: 85vh;" className="overflow-hidden rounded-md drop-shadow-lg transition duration-300"><rect width="1920" height="1080" fill="#2cb1de"/><g clip-path="url(&quot;#SvgjsClipPath1476&quot;)"><g transform="matrix(1.1054509503290666,0.316982959189549,-0.316982959189549,1.1054509503290666,72.83106375143063,-352.5503318817349)"><path d="M0,-1080C9.542400202956898,-992.6933811472144,66.31443668291924,-710.1932815111683,57.25440121774139,-556.1602868832865C48.19436575256355,-402.12729225540477,-47.4902872866556,-309.4656849967999,-54.360212791067056,-155.80203223270968C-61.23013829547851,-2.138379468619462,3.0363005813682236,220.8639470101945,16.03484819127266,365.82162970125484C29.033395801177093,510.7793123923152,30.107184911310068,559.4819189755355,23.631072868359553,713.9440639136524C17.154960825409038,868.4062088517693,-24.626985820252425,1132.912007762568,-22.821824066430423,1292.5944993299563C-21.01666231260842,1452.2769908973446,30.658406046886487,1527.4714298729743,34.46204339129156,1672.0390133179817C38.26568073569663,1816.606596762989,5.743673898548593,2078.67316888633,0,2160L 1920 2160 L 1920 -1080 Z" fill="url(&quot;#SvgjsLinearGradient1464&quot;)"/><path d="M160,-1080C161.3066680678143,-948.4608565788762,171.03671326680876,-564.2763359869914,167.84000840688577,-290.7651394732577C164.64330354696278,-17.253942959524068,137.88918189108517,278.1719685777371,140.8197708404621,561.0671790824017C143.75035978983902,843.9623895870664,182.22683724322428,1140.1173200684634,185.42354210314727,1406.6061235547297C188.62024696307026,1673.094927040996,164.2372570171912,2034.4343539257884,160,2160L 1920 2160 L 1920 -1080 Z" fill="url(&quot;#SvgjsLinearGradient1465&quot;)"/><path d="M320,-1080C325.5377669615026,-997.0558106369845,346.94475210126075,-741.2812270205065,353.2266017690157,-582.3348638219068C359.50845143677066,-423.388500623307,363.63618300810805,-277.36536201642247,357.69109800652967,-126.3218208084015C351.7460130049513,24.72172039961947,322.8050169957564,167.32311585516194,317.5560917595453,323.9263834262191C312.3071665233343,480.52965099727624,322.0976678407448,671.7837323267144,326.1975465892633,813.2977846179415C330.2974253377818,954.8118369091686,336.0152959839921,1031.4147865809946,342.15536425065636,1173.010697173582C348.29543251732065,1314.6066077661694,366.7305168976918,1498.37503103573,363.0379561892491,1662.8732481734662C359.34539548080636,1827.3714653112024,327.1729926982082,2077.1455413622443,320,2160L 1920 2160 L 1920 -1080 Z" fill="url(&quot;#SvgjsLinearGradient1466&quot;)"/><path d="M480,-1080C487.79168051730994,-992.7982785764455,530.3121944153435,-734.7841412281862,526.7500831038597,-556.7896714586727C523.1879717923758,-378.7952016891593,468.1191155218877,-201.4886299727582,458.6273321310969,-12.033181382919139C449.13554874030615,177.4222672069199,460.1982485643796,393.23385177415446,469.7993827591149,579.9430200803615C479.40051695385023,766.6521883865686,509.0317336668187,935.066376320769,516.2341372995087,1108.221828454323C523.4365409321987,1281.377280587877,519.0528274385063,1443.579370957406,513.0138045552548,1618.8757328816855C506.9747816720033,1794.1720948059651,485.5023007592091,2069.8126221469474,480,2160L 1920 2160 L 1920 -1080 Z" fill="url(&quot;#SvgjsLinearGradient1467&quot;)"/><path d="M640,-1080C641.2628099105291,-1016.349382679984,639.5292666793734,-829.8564938014639,647.5768594631743,-698.0962960799043C655.6244522469751,-566.3360983583447,685.2578595059314,-429.5738927484334,688.2855567028048,-289.4388136706425C691.3132538996782,-149.3037345928516,664.4889645236535,14.852798174722622,665.7430426444147,142.71417838684107C666.9971207651759,270.5755585989595,703.6673540121099,354.0385015031639,695.8100254273716,477.7294676020682C687.9526968426333,601.4204337009726,632.4847744721402,733.9889926994041,618.5990711359849,884.8599749802671C604.7133677998296,1035.73095726113,615.7324795854925,1228.798750955595,612.4958054104396,1382.9553612872462C609.2591312353868,1537.1119716188973,594.5949936540743,1680.2921971847147,599.1790260856677,1809.7996369701737C603.7630585172611,1939.3070767556326,633.1965043476113,2101.6332728283624,640,2160L 1920 2160 L 1920 -1080 Z" fill="url(&quot;#SvgjsLinearGradient1468&quot;)"/><path d="M800,-1080C792.5470792754145,-991.001783237683,755.6629480143247,-717.8742631900627,755.2824756524869,-546.010699426098C754.9020032906492,-374.1471356621332,796.3387326101424,-239.51647320367488,797.7171658289733,-48.818617416211424C799.0955990478042,141.87923837125203,767.490899518587,413.93110239757607,763.553074965472,598.1764352986826C759.615250412357,782.4217681997891,775.8626084531446,885.7049010331338,774.0902185102838,1056.6533799904275C772.3178285674229,1227.6018589477214,748.6004383933544,1439.9762057075168,752.9187353083071,1623.8673090424454C757.2370322232598,1807.758412377374,792.1531225513845,2070.644551507074,800,2160L 1920 2160 L 1920 -1080 Z" fill="url(&quot;#SvgjsLinearGradient1469&quot;)"/><path d="M960,-1080C962.5466040271959,-993.9856957850691,975.1166874825276,-738.391296275693,975.2796241631756,-563.9141747104143C975.4425608438237,-389.43705314513556,960.9439201448648,-224.66626441724054,960.9776200838883,-33.137270608328095C961.0113200229117,158.39172320058435,969.580524664407,394.64581045263935,975.4818237973165,585.2597881430604C981.3831229302259,775.8737658334815,1002.3433455582382,940.4764736156322,996.3854148813448,1110.5465955341983C990.4274842044514,1280.6167174527643,945.7984755495135,1430.7716189101563,939.734239735956,1605.6805196544567C933.6700039223985,1780.589420398757,956.622373289326,2067.6134199424096,960,2160L 1920 2160 L 1920 -1080 Z" fill="url(&quot;#SvgjsLinearGradient1470&quot;)"/><path d="M1120,-1080C1118.9547396637743,-1013.6588466153188,1113.8140664963576,-825.0754626267008,1113.7284379826456,-681.9530796919128C1113.6428094689336,-538.8306967571248,1113.9116636615315,-353.2396102073897,1119.4862289177277,-221.26570239127184C1125.0607941739238,-89.29179457515397,1136.952515843964,-8.48691334871829,1147.175829519822,109.89036720479453C1157.39914319568,228.26764775830736,1177.0498611457751,345.6100893459882,1180.8261109728753,488.99798092980507C1184.6023607999755,632.385872513622,1188.2340159098933,832.0653300049174,1169.8333284824234,970.217716707696C1151.4326410549536,1108.3701034104747,1075.8018756169645,1185.5736608690531,1070.4219864080558,1317.9123011464767C1065.042097199147,1450.2509414239003,1129.2909909636473,1623.9016085633175,1137.5539932289714,1764.249558372238C1145.8169954942955,1904.5975081811584,1122.9256655381619,2094.0415930620397,1120,2160L 1920 2160 L 1920 -1080 Z" fill="url(&quot;#SvgjsLinearGradient1471&quot;)"/><path d="M1280,-1080C1269.7547705903312,-970.7099157734743,1221.5077855375366,-632.1484813631693,1218.5286235419867,-424.2594946408459C1215.5494615464368,-216.37050791852252,1252.9175102234328,-56.78768167954371,1262.1250280267,167.3339203339403C1271.332545829967,391.45552234742433,1280.213977665492,695.3532563696714,1273.7737303615895,920.4701174400582C1267.333483057687,1145.5869785104449,1222.4458325968835,1311.4467729962705,1223.4835442032852,1518.0350867562609C1224.5212558096869,1724.6234005162512,1270.5805907005474,2053.00584779271,1280,2160L 1920 2160 L 1920 -1080 Z" fill="url(&quot;#SvgjsLinearGradient1472&quot;)"/><path d="M1440,-1080C1446.1626106226097,-961.5928283352581,1467.8565082442926,-588.2602442813167,1476.9756637356577,-369.5569700115484C1486.0948192270228,-150.85369574178017,1508.017875084408,28.13235646413284,1494.7149329481908,232.2196456186093C1481.4119908119737,436.30693477308574,1399.2678850562095,645.8829528123573,1397.1580109183549,854.9667649153103C1395.0481367805003,1064.050577018263,1474.9153566074556,1269.2169790555454,1482.0556881210632,1486.722518236327C1489.1960196346708,1704.2280574171086,1447.0092813535105,2047.7870863727212,1440,2160L 1920 2160 L 1920 -1080 Z" fill="url(&quot;#SvgjsLinearGradient1473&quot;)"/><path d="M1600,-1080C1595.4030763468254,-937.2221234468652,1572.3563189946321,-496.1995975696542,1572.4184580809529,-223.33274068119104C1572.4805971672736,49.53411620727215,1604.6393009182307,293.28229613541197,1600.3728345179243,557.2011413307791C1596.1063681176179,821.1199865261462,1546.8817987654347,1093.0471873794752,1546.819659679114,1360.180330491012C1546.7575205927933,1627.3134736025488,1591.136609946519,2026.6967217485021,1600,2160L 1920 2160 L 1920 -1080 Z" fill="url(&quot;#SvgjsLinearGradient1474&quot;)"/><path d="M1760,-1080C1761.0703598869568,-996.1614694892867,1757.1759646167861,-733.9870284208512,1766.4221593217408,-576.96881693572C1775.6683540266954,-419.9506054505889,1824.7957776153776,-293.3058716358663,1815.4771682297282,-137.89073108921335C1806.158558844079,17.524409457439617,1715.2767465980228,194.05570648387732,1710.5105030078446,355.5220263441978C1705.7442594176664,516.9883462045183,1780.7322055104735,681.3766978087783,1786.8797066886589,830.9071880727096C1793.0272078668443,980.4376783366408,1742.4597044606915,1108.1180700219102,1747.3955100769565,1252.7049679277857C1752.3313156932215,1397.2918658336612,1814.3937920657418,1547.2127368292608,1816.494540386249,1698.4285755079632C1818.595288706756,1849.6444141866655,1769.4157567310415,2083.071429251327,1760,2160L 1920 2160 L 1920 -1080 Z" fill="url(&quot;#SvgjsLinearGradient1475&quot;)"/></g></g><defs><linearGradient x1="0.1" y1="0" x2="0" y2="1" id="SvgjsLinearGradient1464"><stop stop-color="#2cb1de" offset="0"/><stop stop-color="#2ccfde" offset="0"/></linearGradient><linearGradient x1="0.1" y1="0" x2="0" y2="1" id="SvgjsLinearGradient1465"><stop stop-color="#21a5d1" offset="0"/><stop stop-color="#21c2d1" offset="0.08333333333333333"/></linearGradient><linearGradient x1="0.1" y1="0" x2="0" y2="1" id="SvgjsLinearGradient1466"><stop stop-color="#1e95bd" offset="0"/><stop stop-color="#1eafbd" offset="0.16666666666666666"/></linearGradient><linearGradient x1="0.1" y1="0" x2="0" y2="1" id="SvgjsLinearGradient1467"><stop stop-color="#1a85a8" offset="0"/><stop stop-color="#1a9da8" offset="0.25"/></linearGradient><linearGradient x1="0.1" y1="0" x2="0" y2="1" id="SvgjsLinearGradient1468"><stop stop-color="#177494" offset="0"/><stop stop-color="#178994" offset="0.3333333333333333"/></linearGradient><linearGradient x1="0.1" y1="0" x2="0" y2="1" id="SvgjsLinearGradient1469"><stop stop-color="#14647f" offset="0"/><stop stop-color="#14767f" offset="0.4166666666666667"/></linearGradient><linearGradient x1="0.1" y1="0" x2="0" y2="1" id="SvgjsLinearGradient1470"><stop stop-color="#11546b" offset="0"/><stop stop-color="#11636b" offset="0.5"/></linearGradient><linearGradient x1="0.1" y1="0" x2="0" y2="1" id="SvgjsLinearGradient1471"><stop stop-color="#0e4456" offset="0"/><stop stop-color="#0e5056" offset="0.5833333333333334"/></linearGradient><linearGradient x1="0.1" y1="0" x2="0" y2="1" id="SvgjsLinearGradient1472"><stop stop-color="#0a3442" offset="0"/><stop stop-color="#0a3d42" offset="0.6666666666666666"/></linearGradient><linearGradient x1="0.1" y1="0" x2="0" y2="1" id="SvgjsLinearGradient1473"><stop stop-color="#07242d" offset="0"/><stop stop-color="#072a2d" offset="0.75"/></linearGradient><linearGradient x1="0.1" y1="0" x2="0" y2="1" id="SvgjsLinearGradient1474"><stop stop-color="#041419" offset="0"/><stop stop-color="#041719" offset="0.8333333333333334"/></linearGradient><linearGradient x1="0.1" y1="0" x2="0" y2="1" id="SvgjsLinearGradient1475"><stop stop-color="#010304" offset="0"/><stop stop-color="#010304" offset="0.9166666666666666"/></linearGradient><clipPath id="SvgjsClipPath1476"><rect width="1920" height="1080"/></clipPath></defs></svg>